HIERARCHY
ROOT hip
{
  OFFSET 5.51535 103.731 -2.80141
  CHANNELS 6 Xposition Yposition Zposition Zrotation Xrotation Yrotation
  JOINT abdomen
  {
    OFFSET 0 -1.186 -1.5018
    CHANNELS 6 Xposition Yposition Zposition Zrotation Xrotation Yrotation
    JOINT abdomen2
    {
      OFFSET 0 9.964 0.2134
      CHANNELS 6 Xposition Yposition Zposition Zrotation Xrotation Yrotation
      JOINT chest
      {
        OFFSET 0 13.134 -3.2573
        CHANNELS 6 Xposition Yposition Zposition Zrotation Xrotation Yrotation
        JOINT neck
        {
          OFFSET 0 20.686 -1.6905
          CHANNELS 6 Xposition Yposition Zposition Zrotation Xrotation Yrotation
          JOINT head
          {
            OFFSET 0 7.23801 -0.1237
            CHANNELS 6 Xposition Yposition Zposition Zrotation Xrotation Yrotation
            End Site
            {
              OFFSET 0 0 0
            }
          }
        }
        JOINT lCollar
        {
          OFFSET 1.7069 20.075 5.0056
          CHANNELS 6 Xposition Yposition Zposition Zrotation Xrotation Yrotation
          JOINT lShldr
          {
            OFFSET 13.6458 -0.0470195 -4.849
            CHANNELS 6 Xposition Yposition Zposition Zrotation Xrotation Yrotation
            JOINT lForeArm
            {
              OFFSET 28.3255 -0.97589 2.2888
              CHANNELS 6 Xposition Yposition Zposition Zrotation Xrotation Yrotation
              JOINT lHand
              {
                OFFSET 22.1583 -0.529998 10.8316
                CHANNELS 6 Xposition Yposition Zposition Zrotation Xrotation Yrotation
                JOINT lThumb1
                {
                  OFFSET 0.786 0.111997 2.5817
                  CHANNELS 6 Xposition Yposition Zposition Zrotation Xrotation Yrotation
                  JOINT lThumb2
                  {
                    OFFSET 0.360097 -0.877999 4.2331
                    CHANNELS 6 Xposition Yposition Zposition Zrotation Xrotation Yrotation
                    JOINT lThumb2_End
                    {
                      OFFSET 1.8127 -1.21601 2.2227
                      CHANNELS 6 Xposition Yposition Zposition Zrotation Xrotation Yrotation
                      End Site
                      {
                        OFFSET 0.0180981 -0.012195 0.0222007
                      }
                    }
                  }
                }
                JOINT lCarpal1
                {
                  OFFSET 0.9571 1.114 1.7695
                  CHANNELS 6 Xposition Yposition Zposition Zrotation Xrotation Yrotation
                  JOINT lIndex1
                  {
                    OFFSET 4.12461 0.486992 4.1451
                    CHANNELS 6 Xposition Yposition Zposition Zrotation Xrotation Yrotation
                    JOINT lIndex2
                    {
                      OFFSET 3.4052 -1.45401 2.7682
                      CHANNELS 6 Xposition Yposition Zposition Zrotation Xrotation Yrotation
                      JOINT lIndex2_End
                      {
                        OFFSET 1.45309 -1.79499 1.2713
                        CHANNELS 6 Xposition Yposition Zposition Zrotation Xrotation Yrotation
                        End Site
                        {
                          OFFSET 0.0144979 -0.0179083 0.0126995
                        }
                      }
                    }
                  }
                  JOINT lMid1
                  {
                    OFFSET 5.6954 0.209987 2.1184
                    CHANNELS 6 Xposition Yposition Zposition Zrotation Xrotation Yrotation
                    JOINT lMid2
                    {
                      OFFSET 3.9766 -1.53999 2.3863
                      CHANNELS 6 Xposition Yposition Zposition Zrotation Xrotation Yrotation
                      JOINT lMid2_End
                      {
                        OFFSET 1.4042 -1.926 1.125
                        CHANNELS 6 Xposition Yposition Zposition Zrotation Xrotation Yrotation
                        End Site
                        {
                          OFFSET 0.013999 -0.0193044 0.011301
                        }
                      }
                    }
                  }
                }
                JOINT lCarpal2
                {
                  OFFSET 2.0956 0.66 -0.3894
                  CHANNELS 6 Xposition Yposition Zposition Zrotation Xrotation Yrotation
                  JOINT lRing1
                  {
                    OFFSET 5.0395 -0.090013 2.4971
                    CHANNELS 6 Xposition Yposition Zposition Zrotation Xrotation Yrotation
                    JOINT lRing2
                    {
                      OFFSET 3.7921 -1.55199 1.4806
                      CHANNELS 6 Xposition Yposition Zposition Zrotation Xrotation Yrotation
                      JOINT lRing2_End
                      {
                        OFFSET 1.4655 -1.808 0.9609
                        CHANNELS 6 Xposition Yposition Zposition Zrotation Xrotation Yrotation
                        End Site
                        {
                          OFFSET 0.0147015 -0.0181014 0.00959957
                        }
                      }
                    }
                  }
                  JOINT lPinky1
                  {
                    OFFSET 4.9141 -1.269 0.3591
                    CHANNELS 6 Xposition Yposition Zposition Zrotation Xrotation Yrotation
                    JOINT lPinky2
                    {
                      OFFSET 3.1477 -1.685 0.8462
                      CHANNELS 6 Xposition Yposition Zposition Zrotation Xrotation Yrotation
                      JOINT lPinky2_End
                      {
                        OFFSET 0.805498 -1.58501 0.795499
                        CHANNELS 6 Xposition Yposition Zposition Zrotation Xrotation Yrotation
                        End Site
                        {
                          OFFSET 0.00809703 -0.0157944 0.00799848
                        }
                      }
                    }
                  }
                }
              }
            }
          }
        }
        JOINT rCollar
        {
          OFFSET -1.7069 20.075 5.0056
          CHANNELS 6 Xposition Yposition Zposition Zrotation Xrotation Yrotation
          JOINT rShldr
          {
            OFFSET -13.6458 -0.0470107 -4.849
            CHANNELS 6 Xposition Yposition Zposition Zrotation Xrotation Yrotation
            JOINT rForeArm
            {
              OFFSET -28.3255 -0.975895 2.2888
              CHANNELS 6 Xposition Yposition Zposition Zrotation Xrotation Yrotation
              JOINT rHand
              {
                OFFSET -22.1583 -0.530007 10.8316
                CHANNELS 6 Xposition Yposition Zposition Zrotation Xrotation Yrotation
                JOINT rThumb1
                {
                  OFFSET -0.785997 0.112005 2.5817
                  CHANNELS 6 Xposition Yposition Zposition Zrotation Xrotation Yrotation
                  JOINT rThumb2
                  {
                    OFFSET -0.360106 -0.877994 4.2331
                    CHANNELS 6 Xposition Yposition Zposition Zrotation Xrotation Yrotation
                    JOINT rThumb2_End
                    {
                      OFFSET -1.8127 -1.216 2.2227
                      CHANNELS 6 Xposition Yposition Zposition Zrotation Xrotation Yrotation
                      End Site
                      {
                        OFFSET -0.0180972 -0.0121973 0.0222005
                      }
                    }
                  }
                }
                JOINT rCarpal1
                {
                  OFFSET -0.9571 1.114 1.7695
                  CHANNELS 6 Xposition Yposition Zposition Zrotation Xrotation Yrotation
                  JOINT rIndex1
                  {
                    OFFSET -4.1246 0.487011 4.1451
                    CHANNELS 6 Xposition Yposition Zposition Zrotation Xrotation Yrotation
                    JOINT rIndex2
                    {
                      OFFSET -3.4052 -1.45401 2.7682
                      CHANNELS 6 Xposition Yposition Zposition Zrotation Xrotation Yrotation
                      JOINT rIndex2_End
                      {
                        OFFSET -1.4531 -1.795 1.2713
                        CHANNELS 6 Xposition Yposition Zposition Zrotation Xrotation Yrotation
                        End Site
                        {
                          OFFSET -0.0145077 -0.0180048 0.0127017
                        }
                      }
                    }
                  }
                  JOINT rMid1
                  {
                    OFFSET -5.6954 0.210002 2.1184
                    CHANNELS 6 Xposition Yposition Zposition Zrotation Xrotation Yrotation
                    JOINT rMid2
                    {
                      OFFSET -3.9766 -1.54 2.3863
                      CHANNELS 6 Xposition Yposition Zposition Zrotation Xrotation Yrotation
                      JOINT rMid2_End
                      {
                        OFFSET -1.4042 -1.926 1.125
                        CHANNELS 6 Xposition Yposition Zposition Zrotation Xrotation Yrotation
                        End Site
                        {
                          OFFSET -0.0139948 -0.0192916 0.0112994
                        }
                      }
                    }
                  }
                }
                JOINT rCarpal2
                {
                  OFFSET -2.0956 0.66 -0.3894
                  CHANNELS 6 Xposition Yposition Zposition Zrotation Xrotation Yrotation
                  JOINT rRing1
                  {
                    OFFSET -5.03951 -0.0899879 2.4971
                    CHANNELS 6 Xposition Yposition Zposition Zrotation Xrotation Yrotation
                    JOINT rRing2
                    {
                      OFFSET -3.7921 -1.55201 1.4806
                      CHANNELS 6 Xposition Yposition Zposition Zrotation Xrotation Yrotation
                      JOINT rRing2_End
                      {
                        OFFSET -1.4655 -1.808 0.960901
                        CHANNELS 6 Xposition Yposition Zposition Zrotation Xrotation Yrotation
                        End Site
                        {
                          OFFSET -0.0146934 -0.0180999 0.00959832
                        }
                      }
                    }
                  }
                  JOINT rPinky1
                  {
                    OFFSET -4.91411 -1.26899 0.359202
                    CHANNELS 6 Xposition Yposition Zposition Zrotation Xrotation Yrotation
                    JOINT rPinky2
                    {
                      OFFSET -3.14769 -1.68501 0.846199
                      CHANNELS 6 Xposition Yposition Zposition Zrotation Xrotation Yrotation
                      JOINT rPinky2_End
                      {
                        OFFSET -0.805498 -1.585 0.7955
                        CHANNELS 6 Xposition Yposition Zposition Zrotation Xrotation Yrotation
                        End Site
                        {
                          OFFSET -0.00810035 -0.0158035 0.00800029
                        }
                      }
                    }
                  }
                }
              }
            }
          }
        }
      }
    }
  }
  JOINT lThigh
  {
    OFFSET 8.367 -8.2066 0.5982
    CHANNELS 6 Xposition Yposition Zposition Zrotation Xrotation Yrotation
    JOINT lShin
    {
      OFFSET 2.1923 -43.463 -0.4932
      CHANNELS 6 Xposition Yposition Zposition Zrotation Xrotation Yrotation
      JOINT lFoot
      {
        OFFSET 0.733301 -45.8593 -2.6451
        CHANNELS 6 Xposition Yposition Zposition Zrotation Xrotation Yrotation
        End Site
        {
          OFFSET 2.6618 -4.2699 12.3931
        }
      }
    }
  }
  JOINT rThigh
  {
    OFFSET -8.367 -8.2066 0.5982
    CHANNELS 6 Xposition Yposition Zposition Zrotation Xrotation Yrotation
    JOINT rShin
    {
      OFFSET -2.1923 -43.463 -0.4931
      CHANNELS 6 Xposition Yposition Zposition Zrotation Xrotation Yrotation
      JOINT rFoot
      {
        OFFSET -0.733299 -45.8593 -2.6451
        CHANNELS 6 Xposition Yposition Zposition Zrotation Xrotation Yrotation
        End Site
        {
          OFFSET -2.6618 -4.2699 12.3931
        }
      }
    }
  }
}
MOTION
Frames:	4
Frame Time:	0.0333333
-28.8387 100.089 40.2645 0.661661 -39.2708 16.2802 -2.17469e-007 -1.186 -1.5018 1.49626 -5.19458 -0.465574 -9.75189e-007 9.964 0.213403 2.96833 -10.3995 -0.799089 -3.50847e-007 13.134 -3.2573 2.96833 -10.3995 -0.799099 -3.06349e-006 20.6861 -1.69055 0.30997 -1.51304 -1.94384 1.00718e-005 7.23803 -0.12371 31.1471 1.67845 9.37426 1.7069 20.075 5.00561 12.79 -1.59959 -16.7424 13.6458 -0.0470125 -4.849 -49.4003 -11.6544 -42.6008 28.3255 -0.975886 2.28881 -55.6814 7.47677 -107.429 22.1583 -0.529985 10.8316 -5.07159 60.6037 -23.6932 0.786003 0.111996 2.5817 29.0017 36.821 -34.7962 0.360098 -0.877997 4.2331 -6.33711 -0.117561 -11.5742 1.81269 -1.21601 2.2227 6.48478 1.48398 12.0602 0.9571 1.114 1.7695 3.18055e-015 1.59028e-015 7.95139e-016 4.12461 0.486992 4.1451 -4.88737 4.53869 12.6179 3.4052 -1.45401 2.76819 -36.3635 10.0338 17.8993 1.4531 -1.79499 1.27129 -37.4308 10.1384 18.4808 5.6954 0.209987 2.11841 -1.58708 -0.577174 1.61801 3.9766 -1.53999 2.3863 -43.8285 12.176 22.7532 1.4042 -1.926 1.125 -9.03154 4.06833 4.02235 2.0956 0.66 -0.3894 3.18055e-015 1.59028e-015 7.95139e-016 5.0395 -0.090011 2.4971 -8.44093 -1.94816 5.79528 3.7921 -1.55199 1.4806 -14.2679 6.48309 7.41452 1.4655 -1.808 0.960898 -15.7291 7.01776 8.23514 4.9141 -1.269 0.359098 10.4038 -12.5937 2.33175 3.1477 -1.685 0.846195 -18.2186 8.5171 9.60889 0.8055 -1.58501 0.795498 -8.80544 4.59349 4.39846 -1.7069 20.075 5.0056 -25.259 0.015503 -10.3487 -13.6458 -0.0470101 -4.849 60.7033 -4.00445 84.2277 -28.3255 -0.975888 2.2888 0.376376 -1.3096 42.5052 -22.1583 -0.529994 10.8316 -16.6536 -18.8809 53.0252 -0.785999 0.112005 2.58171 -23.2936 46.7514 30.678 -0.360106 -0.87799 4.23311 4.57604 -3.14028 12.9016 -1.81269 -1.21601 2.22269 -7.05384 9.98904 -27.8101 -0.9571 1.114 1.7695 -1.59028e-015 0 3.18055e-015 -4.1246 0.487011 4.14511 22.4325 7.18761 -14.4624 -3.4052 -1.45401 2.7682 39.3269 10.0705 -9.2221 -1.4531 -1.795 1.2713 40.1699 10.2038 -9.48275 -5.6954 0.210001 2.11841 6.18722 0.992304 -2.02838 -3.9766 -1.54 2.38629 51.3579 13.4213 -13.7631 -1.4042 -1.926 1.12499 14.2806 5.03465 -2.58744 -2.0956 0.66 -0.3894 -1.59028e-015 0 3.18055e-015 -5.03951 -0.0899883 2.4971 13.5939 -0.619301 -5.16272 -3.7921 -1.55201 1.4806 20.0873 7.41391 -4.91582 -1.4655 -1.808 0.960898 21.6834 7.9068 -5.40279 -4.91411 -1.26899 0.359206 -10.8188 -10.1308 -6.16947 -3.1477 -1.68501 0.846192 20.7196 8.26513 -4.96495 -0.805502 -1.585 0.795495 10.5203 4.46842 -2.16727 8.367 -8.2066 0.598199 11.9784 17.2957 6.33117 2.1923 -43.463 -0.493191 0.405055 -2.63083 0.571649 0.733301 -45.8594 -2.6451 -2.02805 19.2755 -6.43617 -8.367 -8.2066 0.598198 9.42653 27.6599 -2.2146 -2.19229 -43.463 -0.493337 0.532195 0.12318 3.93569 -0.733297 -45.8593 -2.6451 10.6174 5.95121 -18.1307 
-28.4596 100.055 40.3611 0.734699 -39.5996 16.402 -2.93002e-007 -1.186 -1.5018 1.58283 -5.28197 -0.521333 -2.18292e-008 9.964 0.2134 3.13728 -10.5762 -0.901006 4.50844e-007 13.134 -3.2573 3.13728 -10.5762 -0.901004 2.59263e-007 20.686 -1.69047 0.297349 -1.19216 -1.52674 5.68848e-008 7.23801 -0.123701 30.6554 1.7359 9.35385 1.7069 20.075 5.00561 13.1141 -1.57956 -16.5118 13.6458 -0.0470129 -4.849 -50.905 -10.0825 -42.8353 28.3255 -0.975898 2.2888 -55.9292 7.42964 -108.167 22.1583 -0.529986 10.8316 -6.66415 62.1493 -21.748 0.786004 0.111998 2.5817 29.0016 36.821 -34.7961 0.360098 -0.877996 4.2331 -6.33714 -0.117625 -11.5742 1.8127 -1.21601 2.2227 6.48476 1.48397 12.0602 0.9571 1.114 1.7695 -9.54166e-015 -1.59028e-015 2.38542e-015 4.1246 0.486991 4.14511 -4.88741 4.53863 12.6178 3.4052 -1.45401 2.7682 -36.3635 10.0338 17.8994 1.45309 -1.79499 1.2713 -37.4308 10.1385 18.4808 5.6954 0.209988 2.1184 -1.58703 -0.577067 1.61803 3.9766 -1.53999 2.3863 -43.8285 12.1759 22.7532 1.4042 -1.926 1.12499 -9.03154 4.06834 4.02236 2.0956 0.66 -0.3894 -9.54166e-015 -1.59028e-015 2.38542e-015 5.0395 -0.090013 2.49711 -8.44095 -1.94818 5.79527 3.7921 -1.55199 1.4806 -14.2679 6.4831 7.41453 1.4655 -1.808 0.960898 -15.7291 7.01768 8.23516 4.9141 -1.269 0.359107 10.4037 -12.5938 2.33177 3.1477 -1.685 0.846199 -18.2187 8.51709 9.6089 0.805496 -1.58501 0.795504 -8.80543 4.59344 4.3985 -1.7069 20.075 5.0056 -25.3731 0.00514433 -9.93484 -13.6458 -0.0470132 -4.849 60.9284 -4.15317 83.7028 -28.3255 -0.975883 2.28879 1.3873 -1.55723 42.9923 -22.1583 -0.53 10.8316 -15.5812 -15.4861 53.2392 -0.785999 0.112003 2.58171 -23.2936 46.7515 30.6781 -0.360104 -0.877994 4.2331 4.57603 -3.14027 12.9016 -1.81269 -1.216 2.2227 -7.05384 9.98908 -27.8101 -0.9571 1.114 1.7695 -3.18055e-015 -1.59028e-015 -0 -4.1246 0.487012 4.14511 22.4325 7.18764 -14.4624 -3.4052 -1.45401 2.76819 39.327 10.0705 -9.2221 -1.45309 -1.795 1.2713 40.1699 10.2039 -9.48278 -5.69541 0.210002 2.11839 6.18722 0.992332 -2.02838 -3.9766 -1.54 2.3863 51.3579 13.4213 -13.7631 -1.4042 -1.926 1.125 14.2806 5.03452 -2.58752 -2.0956 0.66 -0.3894 -3.18055e-015 -1.59028e-015 -0 -5.03951 -0.0899884 2.49711 13.5939 -0.619302 -5.16271 -3.79209 -1.55201 1.48061 20.0873 7.41391 -4.91581 -1.4655 -1.808 0.9609 21.6835 7.90666 -5.4028 -4.9141 -1.26899 0.359209 -10.8188 -10.1308 -6.16948 -3.1477 -1.685 0.846195 20.7196 8.26519 -4.96493 -0.8055 -1.58499 0.795498 10.5203 4.46852 -2.1672 8.367 -8.2066 0.598199 11.6238 18.8178 4.84447 2.19231 -43.463 -0.493201 0.3818 -2.70312 0.57793 0.733305 -45.8593 -2.6451 -2.0789 20.2664 -6.1644 -8.367 -8.2066 0.5982 9.18139 27.5411 -1.93495 -2.19229 -43.463 -0.493278 0.694608 1.28832 3.81906 -0.733299 -45.8593 -2.6451 10.5931 5.33004 -18.1002 
-27.9898 99.9898 40.5371 1.06774 -40.0419 16.4606 2.73567e-007 -1.186 -1.5018 1.64582 -5.3526 -0.558658 5.48276e-007 9.964 0.213401 3.26044 -10.7189 -0.968275 3.28068e-007 13.134 -3.2573 3.26044 -10.7189 -0.968279 -7.68153e-006 20.686 -1.69052 0.293977 -0.800923 -0.981981 1.05505e-005 7.23802 -0.123709 30.3816 1.6817 9.50639 1.7069 20.075 5.0056 13.5911 -1.54525 -16.1174 13.6458 -0.0470106 -4.849 -52.691 -8.60807 -42.9354 28.3255 -0.975886 2.2888 -55.9378 7.35483 -108.709 22.1583 -0.529991 10.8316 -8.3515 63.344 -19.9031 0.786004 0.111996 2.5817 29.0016 36.821 -34.7961 0.360093 -0.878004 4.2331 -6.33706 -0.117522 -11.5742 1.8127 -1.21601 2.22271 6.48477 1.48394 12.0602 0.9571 1.114 1.7695 -3.18055e-015 -1.59028e-015 1.59028e-015 4.1246 0.486992 4.1451 -4.88734 4.53875 12.6179 3.4052 -1.454 2.76819 -36.3634 10.0338 17.8993 1.4531 -1.79499 1.27129 -37.4308 10.1385 18.4808 5.6954 0.209989 2.1184 -1.58704 -0.577091 1.61803 3.9766 -1.53999 2.3863 -43.8285 12.1759 22.7532 1.4042 -1.926 1.125 -9.03153 4.06834 4.02234 2.0956 0.66 -0.3894 -3.18055e-015 -1.59028e-015 1.59028e-015 5.0395 -0.0900136 2.4971 -8.44097 -1.9482 5.79527 3.7921 -1.55199 1.4806 -14.2678 6.48312 7.41452 1.4655 -1.808 0.960907 -15.7291 7.01779 8.2351 4.9141 -1.269 0.359094 10.4038 -12.5936 2.33176 3.1477 -1.685 0.846201 -18.2187 8.5171 9.6089 0.805499 -1.585 0.795496 -8.80542 4.59355 4.39839 -1.7069 20.075 5.0056 -25.444 -0.0059966 -9.45725 -13.6458 -0.047011 -4.849 61.2157 -4.10482 83.2713 -28.3255 -0.975882 2.2888 2.31096 -1.76218 43.355 -22.1583 -0.530005 10.8316 -14.5813 -12.2634 53.411 -0.785999 0.112005 2.5817 -23.2935 46.7513 30.678 -0.360104 -0.87799 4.2331 4.57603 -3.14027 12.9016 -1.8127 -1.216 2.2227 -7.05392 9.98915 -27.81 -0.9571 1.114 1.7695 -8.82781e-032 7.95139e-016 6.36111e-015 -4.12461 0.487009 4.1451 22.4324 7.1877 -14.4625 -3.4052 -1.45401 2.76819 39.3269 10.0705 -9.22209 -1.4531 -1.795 1.2713 40.1699 10.2038 -9.48275 -5.6954 0.210001 2.1184 6.18721 0.992312 -2.02838 -3.9766 -1.54 2.38631 51.3579 13.4213 -13.7631 -1.4042 -1.926 1.125 14.2806 5.03453 -2.58751 -2.0956 0.66 -0.3894 -8.82781e-032 7.95139e-016 6.36111e-015 -5.03951 -0.0899885 2.4971 13.5939 -0.619296 -5.16272 -3.7921 -1.55201 1.4806 20.0873 7.4139 -4.91581 -1.4655 -1.808 0.9609 21.6835 7.9067 -5.40277 -4.91411 -1.26899 0.359202 -10.8188 -10.1308 -6.16946 -3.1477 -1.68501 0.846191 20.7196 8.26506 -4.96496 -0.805501 -1.58499 0.795496 10.5204 4.46832 -2.16733 8.367 -8.20659 0.5982 11.0805 19.9108 4.27981 2.1923 -43.463 -0.493201 0.374918 -2.2128 0.594147 0.733301 -45.8593 -2.64511 -1.27173 19.6701 -6.66684 -8.367 -8.2066 0.598198 8.61016 27.3534 -1.74253 -2.19231 -43.463 -0.492971 0.870202 3.09673 3.71024 -0.733301 -45.8593 -2.6451 10.2702 4.72547 -17.5553 
-27.4759 99.9382 40.7447 1.59999 -40.4114 16.4204 -2.6792e-007 -1.186 -1.5018 1.70908 -5.41175 -0.536711 -2.28768e-007 9.964 0.213402 3.38981 -10.837 -0.916373 -1.18283e-006 13.134 -3.2573 3.38981 -10.837 -0.916375 -6.2172e-007 20.686 -1.6905 0.288111 -0.565021 -0.560631 1.51303e-006 7.23801 -0.123702 29.9518 1.60106 9.65282 1.7069 20.075 5.0056 13.9066 -1.53685 -16.0156 13.6458 -0.0470112 -4.849 -53.8384 -7.35449 -42.5537 28.3255 -0.975899 2.2888 -56.1899 7.55434 -109.428 22.1583 -0.529991 10.8316 -9.32134 64.6009 -18.5324 0.786002 0.111996 2.58171 29.0016 36.821 -34.7962 0.360097 -0.877998 4.2331 -6.33706 -0.117514 -11.5742 1.8127 -1.21601 2.2227 6.48474 1.48391 12.0603 0.9571 1.114 1.7695 -8.82781e-032 -3.18055e-015 -1.59028e-015 4.1246 0.486993 4.1451 -4.88736 4.53876 12.6179 3.4052 -1.454 2.7682 -36.3635 10.0338 17.8993 1.45309 -1.79499 1.2713 -37.4308 10.1384 18.4809 5.6954 0.209987 2.1184 -1.58704 -0.577096 1.61802 3.9766 -1.53999 2.38629 -43.8285 12.176 22.7533 1.4042 -1.926 1.12501 -9.03156 4.06835 4.02235 2.0956 0.66 -0.3894 -8.82781e-032 -3.18055e-015 -1.59028e-015 5.0395 -0.0900117 2.49709 -8.44101 -1.94828 5.79525 3.7921 -1.55199 1.4806 -14.2679 6.48309 7.41454 1.4655 -1.808 0.960903 -15.7291 7.01781 8.23511 4.9141 -1.269 0.359102 10.4038 -12.5936 2.33174 3.1477 -1.685 0.846201 -18.2187 8.51707 9.60892 0.805498 -1.58501 0.795497 -8.80544 4.59355 4.39841 -1.7069 20.075 5.0056 -25.246 -0.0110003 -9.09411 -13.6458 -0.047012 -4.849 61.5404 -3.80376 83.1099 -28.3255 -0.975887 2.2888 3.06808 -1.92197 43.5596 -22.1583 -0.530007 10.8316 -13.5458 -8.97719 53.6102 -0.786 0.112004 2.5817 -23.2935 46.7513 30.678 -0.360103 -0.87799 4.23311 4.57602 -3.14027 12.9016 -1.8127 -1.216 2.2227 -7.0538 9.98902 -27.8101 -0.9571 1.114 1.7695 -3.18055e-015 -7.95139e-016 -3.18055e-015 -4.12461 0.487012 4.1451 22.4325 7.18758 -14.4624 -3.4052 -1.45401 2.7682 39.327 10.0705 -9.2221 -1.4531 -1.795 1.2713 40.17 10.2038 -9.48274 -5.6954 0.210001 2.1184 6.1872 0.992332 -2.02838 -3.9766 -1.54 2.38629 51.3579 13.4213 -13.7632 -1.4042 -1.926 1.125 14.2806 5.03454 -2.58752 -2.0956 0.66 -0.3894 -3.18055e-015 -7.95139e-016 -3.18055e-015 -5.03951 -0.0899847 2.4971 13.5939 -0.619297 -5.16272 -3.7921 -1.55201 1.4806 20.0873 7.41393 -4.91582 -1.4655 -1.808 0.9609 21.6836 7.90659 -5.40279 -4.91411 -1.26899 0.359201 -10.8188 -10.1307 -6.16946 -3.1477 -1.68501 0.846192 20.7196 8.26507 -4.96499 -0.805501 -1.585 0.795498 10.5204 4.46836 -2.16733 8.367 -8.2066 0.598203 10.2595 20.763 4.55442 2.1923 -43.463 -0.493199 0.379466 -2.35356 0.600387 0.733302 -45.8593 -2.6451 -0.776952 19.3658 -5.39599 -8.36701 -8.2066 0.598198 7.79075 27.0828 -0.743241 -2.1923 -43.463 -0.493145 1.04897 5.08462 3.59339 -0.733298 -45.8593 -2.64511 9.76345 3.94965 -17.5833 
